<svg xmlns="http://www.w3.org/2000/svg" viewBox="0 0 64 84" fill="none">
    <rect width="64" height="84" rx="12" fill="#FFF7ED"/>

    <path
        d="M11 78V30C11 26.5 12.3 23.7 14.8 21.5L19.4 17.4L22.8 13.2L26.1 9.1L29.1 5.8L32 3.5L34.9 5.8L37.9 9.1L41.2 13.2L44.6 17.4L49.2 21.5C51.7 23.7 53 26.5 53 30V78"
        stroke="#F97316"
        stroke-width="3"
        stroke-linecap="round"
        stroke-linejoin="round"
    />

    <path
        d="M17 29C17 26.4 18 24.2 19.9 22.5L24 18.8L26.8 15.2L29.2 12.1L32 9.8L34.8 12.1L37.2 15.2L40 18.8L44.1 22.5C46 24.2 47 26.4 47 29"
        stroke="#F97316"
        stroke-width="2"
        stroke-linecap="round"
        stroke-linejoin="round"
    />

    <path
        d="M18 78V33C18 30.6 18.9 28.6 20.6 27L24.4 23.4L27 20.2L29.2 17.6L32 15.4L34.8 17.6L37 20.2L39.6 23.4L43.4 27C45.1 28.6 46 30.6 46 33V78"
        stroke="#F97316"
        stroke-width="2.4"
        stroke-linecap="round"
        stroke-linejoin="round"
    />

    <path
        d="M32 20.2L33.1 22.6L35.7 21.9L35 24.5L37.4 25.6L35 26.7L35.7 29.3L33.1 28.6L32 31L30.9 28.6L28.3 29.3L29 26.7L26.6 25.6L29 24.5L28.3 21.9L30.9 22.6Z"
        fill="#F97316"
    />

    <g transform="translate(32 53) scale(0.95)">
        <path d="M0 0 C2 -2.2 4.2 -5.2 4.2 -8.4 C4.2 -10.8 2.5 -12.6 0 -13.4 C-2.5 -12.6 -4.2 -10.8 -4.2 -8.4 C-4.2 -5.2 -2 -2.2 0 0Z" stroke="#F97316" stroke-width="2" fill="none"/>
        <path d="M0 0 C2 -2.2 4.2 -5.2 4.2 -8.4 C4.2 -10.8 2.5 -12.6 0 -13.4 C-2.5 -12.6 -4.2 -10.8 -4.2 -8.4 C-4.2 -5.2 -2 -2.2 0 0Z" stroke="#F97316" stroke-width="2" fill="none" transform="rotate(45)"/>
        <path d="M0 0 C2 -2.2 4.2 -5.2 4.2 -8.4 C4.2 -10.8 2.5 -12.6 0 -13.4 C-2.5 -12.6 -4.2 -10.8 -4.2 -8.4 C-4.2 -5.2 -2 -2.2 0 0Z" stroke="#F97316" stroke-width="2" fill="none" transform="rotate(90)"/>
        <path d="M0 0 C2 -2.2 4.2 -5.2 4.2 -8.4 C4.2 -10.8 2.5 -12.6 0 -13.4 C-2.5 -12.6 -4.2 -10.8 -4.2 -8.4 C-4.2 -5.2 -2 -2.2 0 0Z" stroke="#F97316" stroke-width="2" fill="none" transform="rotate(135)"/>
        <path d="M0 0 C2 -2.2 4.2 -5.2 4.2 -8.4 C4.2 -10.8 2.5 -12.6 0 -13.4 C-2.5 -12.6 -4.2 -10.8 -4.2 -8.4 C-4.2 -5.2 -2 -2.2 0 0Z" stroke="#F97316" stroke-width="2" fill="none" transform="rotate(180)"/>
        <path d="M0 0 C2 -2.2 4.2 -5.2 4.2 -8.4 C4.2 -10.8 2.5 -12.6 0 -13.4 C-2.5 -12.6 -4.2 -10.8 -4.2 -8.4 C-4.2 -5.2 -2 -2.2 0 0Z" stroke="#F97316" stroke-width="2" fill="none" transform="rotate(225)"/>
        <path d="M0 0 C2 -2.2 4.2 -5.2 4.2 -8.4 C4.2 -10.8 2.5 -12.6 0 -13.4 C-2.5 -12.6 -4.2 -10.8 -4.2 -8.4 C-4.2 -5.2 -2 -2.2 0 0Z" stroke="#F97316" stroke-width="2" fill="none" transform="rotate(270)"/>
        <path d="M0 0 C2 -2.2 4.2 -5.2 4.2 -8.4 C4.2 -10.8 2.5 -12.6 0 -13.4 C-2.5 -12.6 -4.2 -10.8 -4.2 -8.4 C-4.2 -5.2 -2 -2.2 0 0Z" stroke="#F97316" stroke-width="2" fill="none" transform="rotate(315)"/>
        <circle cx="0" cy="0" r="2.2" stroke="#F97316" stroke-width="1.7" fill="#FFF7ED"/>
    </g>
</svg>